<?xml version="1.0" encoding="utf-8"?>
<!-- Generator: Adobe Illustrator 26.0.3, SVG Export Plug-In . SVG Version: 6.00 Build 0)  -->
<svg version="1.1" id="Layer_1" xmlns="http://www.w3.org/2000/svg" xmlns:xlink="http://www.w3.org/1999/xlink" x="0px" y="0px"
	 width="473.9px" height="101.1px" viewBox="0 0 473.9 101.1" style="enable-background:new 0 0 473.9 101.1;" xml:space="preserve"
	>
<g id="Layer_2_00000032625384256101952260000007080479720676932503_">
	<g id="Layer_1-2">
		<g id="_Group_">
			<g id="_Group_2">
				<path id="_Compound_Path_" d="M330.9,30.8c10.9,0,19.7,8.8,19.7,19.7s-8.8,19.7-19.7,19.7c-10.9,0-19.7-8.8-19.7-19.7
					c0,0,0,0,0,0C311.2,39.7,320,30.8,330.9,30.8 M330.9,17.7c-18.2,0-32.9,14.7-32.9,32.9s14.7,32.9,32.9,32.9s32.9-14.7,32.9-32.9
					S349,17.7,330.9,17.7C330.9,17.7,330.9,17.7,330.9,17.7z"/>
				<path id="_Compound_Path_2" d="M127,19.7v5.4c-14.1-11.5-34.8-9.3-46.3,4.7s-9.3,34.8,4.7,46.3c12.1,9.8,29.4,9.8,41.5,0v5.3
					h12.1V19.7H127z M107,71c-11.3,0-20.5-9.2-20.5-20.5s9.2-20.5,20.5-20.5s20.5,9.2,20.5,20.5c0,0,0,0,0,0
					C127.4,61.8,118.3,71,107,71z"/>
				<path id="_Compound_Path_3" d="M461.7,19.7v5.4c-14.1-11.5-34.8-9.3-46.3,4.7c-11.5,14.1-9.3,34.8,4.7,46.3
					c12.1,9.8,29.4,9.8,41.5,0v5.3h12.1V19.7H461.7z M441.7,71c-11.3,0-20.5-9.2-20.5-20.5c0-11.3,9.2-20.5,20.5-20.5
					c11.3,0,20.5,9.2,20.5,20.5c0,0,0,0,0,0C462.1,61.8,453,71,441.7,71z"/>
				<path id="_Path_" d="M385.3,23.6c-7,4.5-13.1,12.5-13.1,26.6v31.1h13.1V50.3l0,0c0-20.5,21.1-19.3,21.1-19.3V17.8
					C406.3,17.8,394.9,17.5,385.3,23.6z"/>
				<path id="_Path_2" d="M201.6,24.2c-14.5-10.9-35.1-7.9-46,6.6c-4.2,5.7-6.5,12.6-6.5,19.7v30.8h13.1V50.5
					c-0.2-10.9,8.4-19.9,19.3-20.2s19.9,8.4,20.2,19.3c0,0.3,0,0.6,0,0.9v30.8h13.1V50.5C214.7,40.2,209.8,30.4,201.6,24.2z"/>
				<path id="_Compound_Path_4" d="M283.2,0c-3.3,0-6,2.7-6,6.1c0,0,0,0,0,0v19c-14.1-11.5-34.8-9.3-46.3,4.7
					c-11.5,14.1-9.3,34.8,4.7,46.3c12.1,9.8,29.4,9.8,41.5,0v5.3h12.1V0H283.2z M257.1,71c-11.3,0-20.5-9.2-20.5-20.5
					s9.2-20.5,20.5-20.5c11.3,0,20.5,9.2,20.5,20.5c0,0,0,0,0,0C277.5,61.8,268.4,71,257.1,71z"/>
				<path id="_Compound_Path_5" d="M32.9,17.7c-7.6,0-14.9,2.6-20.8,7.4v-5.4H0v81.4h6.1c3.3,0,6-2.7,6.1-6V76
					c14.1,11.5,34.8,9.4,46.3-4.7s9.4-34.8-4.7-46.3C47.8,20.3,40.5,17.7,32.9,17.7z M32.1,71c-11.3,0-20.5-9.2-20.5-20.5
					c0-11.3,9.2-20.5,20.5-20.5s20.5,9.2,20.5,20.5c0,0,0,0,0,0C52.6,61.8,43.4,71,32.1,71z"/>
			</g>
		</g>
	</g>
</g>
</svg>
